HIERARCHY
ROOT Hips
{
	OFFSET 0.000000 89.005402 0.000000
	CHANNELS 6 Xposition Yposition Zposition Xrotation Yrotation Zrotation
	JOINT Spine
	{
		OFFSET 0.116900 10.681000 0.373400
		CHANNELS 3 Xrotation Yrotation Zrotation
		JOINT Spine1
		{
			OFFSET 0.000000 13.840401 0.053500
			CHANNELS 3 Xrotation Yrotation Zrotation
			JOINT Spine2
			{
				OFFSET 0.000000 14.712700 -0.366200
				CHANNELS 3 Xrotation Yrotation Zrotation
				JOINT Neck
				{
					OFFSET 0.000000 35.415497 -3.314200
					CHANNELS 3 Xrotation Yrotation Zrotation
					JOINT Head
					{
						OFFSET 0.000000 16.899200 1.218300
						CHANNELS 3 Xrotation Yrotation Zrotation
						JOINT HeadTop_End
						{
							OFFSET 0.000000 22.206207 2.192500
							CHANNELS 3 Xrotation Yrotation Zrotation
							End Site
							{
								OFFSET 0.000000 22.314178 0.000000
							}
						}
					}
				}
				JOINT LeftShoulder
				{
					OFFSET 12.896400 26.716293 -4.548400
					CHANNELS 3 Xrotation Yrotation Zrotation
					JOINT LeftArm
					{
						OFFSET 19.027000 -4.857010 -1.718400
						CHANNELS 3 Xrotation Yrotation Zrotation
						JOINT LeftForeArm
						{
							OFFSET 24.179897 0.000000 0.000000
							CHANNELS 3 Xrotation Yrotation Zrotation
							JOINT LeftHand
							{
								OFFSET 27.156403 0.000000 0.000000
								CHANNELS 3 Xrotation Yrotation Zrotation
								JOINT LeftHandIndex1
								{
									OFFSET 16.441200 0.000000 0.000000
									CHANNELS 3 Xrotation Yrotation Zrotation
									JOINT LeftHandIndex2
									{
										OFFSET 4.821899 0.000000 0.000000
										CHANNELS 3 Xrotation Yrotation Zrotation
										JOINT LeftHandIndex3
										{
											OFFSET 6.386497 0.000000 0.000000
											CHANNELS 3 Xrotation Yrotation Zrotation
											JOINT LeftHandIndex4
											{
												OFFSET 5.188988 0.000000 0.000000
												CHANNELS 3 Xrotation Yrotation Zrotation
												End Site
												{
													OFFSET -0.178703 5.185913 0.000177
												}
											}
										}
									}
								}
								JOINT LeftHandThumb1
								{
									OFFSET 6.534897 -5.032593 5.900300
									CHANNELS 3 Xrotation Yrotation Zrotation
									JOINT LeftHandThumb2
									{
										OFFSET 3.818176 -2.204422 2.204423
										CHANNELS 3 Xrotation Yrotation Zrotation
										JOINT LeftHandThumb3
										{
											OFFSET 3.252098 -1.877594 1.877601
											CHANNELS 3 Xrotation Yrotation Zrotation
											JOINT LeftHandThumb4
											{
												OFFSET 5.251778 -3.032120 3.032117
												CHANNELS 3 Xrotation Yrotation Zrotation
												End Site
												{
													OFFSET 0.000023 6.780014 0.000000
												}
											}
										}
									}
								}
							}
						}
					}
				}
				JOINT RightShoulder
				{
					OFFSET -12.896300 26.716293 -4.548400
					CHANNELS 3 Xrotation Yrotation Zrotation
					JOINT RightArm
					{
						OFFSET -19.027000 -4.857010 -1.718400
						CHANNELS 3 Xrotation Yrotation Zrotation
						JOINT RightForeArm
						{
							OFFSET -24.179897 0.000000 0.000000
							CHANNELS 3 Xrotation Yrotation Zrotation
							JOINT RightHand
							{
								OFFSET -27.156403 0.000000 0.000000
								CHANNELS 3 Xrotation Yrotation Zrotation
								JOINT RightHandThumb1
								{
									OFFSET -6.591202 -4.852203 5.988100
									CHANNELS 3 Xrotation Yrotation Zrotation
									JOINT RightHandThumb2
									{
										OFFSET -3.818176 -2.204422 2.204423
										CHANNELS 3 Xrotation Yrotation Zrotation
										JOINT RightHandThumb3
										{
											OFFSET -3.252098 -1.877594 1.877601
											CHANNELS 3 Xrotation Yrotation Zrotation
											JOINT RightHandThumb4
											{
												OFFSET -5.251778 -3.032120 3.032117
												CHANNELS 3 Xrotation Yrotation Zrotation
												End Site
												{
													OFFSET -0.000023 6.780014 0.000000
												}
											}
										}
									}
								}
								JOINT RightHandIndex1
								{
									OFFSET -16.029404 0.000000 0.000000
									CHANNELS 3 Xrotation Yrotation Zrotation
									JOINT RightHandIndex2
									{
										OFFSET -5.213303 0.000000 0.000000
										CHANNELS 3 Xrotation Yrotation Zrotation
										JOINT RightHandIndex3
										{
											OFFSET -6.386528 0.000000 0.000000
											CHANNELS 3 Xrotation Yrotation Zrotation
											JOINT RightHandIndex4
											{
												OFFSET -5.189026 0.000000 0.000000
												CHANNELS 3 Xrotation Yrotation Zrotation
												End Site
												{
													OFFSET 0.236702 5.183624 0.001972
												}
											}
										}
									}
								}
							}
						}
					}
				}
			}
		}
	}
	JOINT LeftUpLeg
	{
		OFFSET 14.073000 -7.904099 -1.463000
		CHANNELS 3 Xrotation Yrotation Zrotation
		JOINT LeftLeg
		{
			OFFSET -0.109806 -34.073280 4.093200
			CHANNELS 3 Xrotation Yrotation Zrotation
			JOINT LeftFoot
			{
				OFFSET 0.109806 -29.899420 -6.319000
				CHANNELS 3 Xrotation Yrotation Zrotation
				JOINT LeftToeBase
				{
					OFFSET 1.551100 -14.988700 20.535801
					CHANNELS 3 Xrotation Yrotation Zrotation
					JOINT LeftToe_End
					{
						OFFSET 0.221200 0.570800 13.248301
						CHANNELS 3 Xrotation Yrotation Zrotation
						End Site
						{
							OFFSET 0.000000 13.262435 0.000000
						}
					}
				}
			}
		}
	}
	JOINT RightUpLeg
	{
		OFFSET -13.839300 -7.904099 -1.463000
		CHANNELS 3 Xrotation Yrotation Zrotation
		JOINT RightLeg
		{
			OFFSET 0.109694 -34.073219 4.093300
			CHANNELS 3 Xrotation Yrotation Zrotation
			JOINT RightFoot
			{
				OFFSET -0.109694 -29.899384 -6.319200
				CHANNELS 3 Xrotation Yrotation Zrotation
				JOINT RightToeBase
				{
					OFFSET -1.551100 -14.988700 20.535801
					CHANNELS 3 Xrotation Yrotation Zrotation
					JOINT RightToe_End
					{
						OFFSET -0.221200 0.570900 13.248299
						CHANNELS 3 Xrotation Yrotation Zrotation
						End Site
						{
							OFFSET 0.000000 13.262440 0.000000
						}
					}
				}
			}
		}
	}
}
MOTION
Frames: 4
Frame Time: 0.033333
-1.023796 12.475891 2.733269 -87.562424 -3.542648 -0.006759 0.650380 1.496824 -2.069509 -2.712455 0.550123 0.069934 -2.710001 0.572753 0.085568 3.954694 -0.162520 0.200795 7.663465 -2.706719 7.904900 -0.000001 -0.000000 0.000001 1.279320 -13.498955 -1.883381 20.483973 -1.014536 -70.993458 0.000001 -137.491503 -0.000000 -17.619165 18.840489 -43.362798 -0.024119 4.029259 2.883327 0.551245 2.482839 -25.032247 0.198058 -1.511911 14.925345 0.000001 0.000000 0.000001 -7.220049 -16.942337 15.004582 7.558170 31.509544 -3.040782 -10.327319 16.515338 14.878082 -0.000000 0.000002 0.000000 0.515819 6.973515 0.064736 15.875310 6.901689 66.846501 -0.000025 133.088012 0.000006 -16.503233 -12.599690 49.917396 -19.372329 9.812723 -17.628150 16.805756 -33.149114 6.482059 3.930029 -4.675014 -18.270496 -0.000002 0.000000 0.000001 -0.578705 -1.290233 19.415301 0.000001 -0.000000 0.000007 0.000373 -0.059106 0.725570 0.000001 -0.000001 -0.000001 -23.186583 15.567715 -9.015763 25.225499 -6.014100 -9.388875 -0.191440 7.983734 8.432122 -0.279201 -0.000001 -0.000003 0.000000 0.000000 0.000001 -2.852541 -10.150218 0.350197 -6.031489 -6.451517 5.161457 16.621306 -3.391350 27.633299 -1.652976 0.000000 0.000013 0.000001 0.000001 0.000002 
-1.023247 12.473869 2.734772 -87.567062 -3.542801 -0.010326 0.659743 1.512088 -2.059245 -2.714820 0.553224 0.066526 -2.712330 0.575766 0.082302 3.958961 -0.166336 0.200117 7.643654 -2.740635 7.924362 -0.000000 -0.000000 -0.000000 1.280331 -13.510994 -1.881054 20.463064 -1.020407 -70.982475 0.000037 -137.485096 0.000030 -17.625459 18.842385 -43.375509 -0.024119 4.029258 2.883321 0.550417 2.481060 -25.013066 0.198058 -1.511912 14.925348 0.000000 -0.000000 0.000001 -7.217995 -16.944357 15.015872 7.558170 31.509544 -3.040781 -10.327318 16.515338 14.878080 -0.000001 0.000001 0.000003 0.515687 6.970296 0.064804 15.871058 6.874162 66.875209 0.000005 133.093763 -0.000002 -16.491441 -12.597519 49.941715 -19.372331 9.812724 -17.628151 16.805754 -33.149114 6.482060 3.930029 -4.675015 -18.270500 -0.000003 0.000002 0.000001 -0.578705 -1.290233 19.415301 0.000001 -0.000000 0.000006 0.000372 -0.059106 0.725571 0.000001 -0.000000 0.000000 -23.186455 15.566341 -9.010526 25.227731 -6.015916 -9.389978 -0.180118 7.977248 8.414895 -0.292812 0.000006 -0.000003 0.000000 0.000000 -0.000001 -2.856261 -10.154435 0.351156 -6.016407 -6.459616 5.159519 16.618830 -3.400052 27.625609 -1.646725 -0.000005 0.000001 -0.000001 0.000000 -0.000001 
-1.022500 12.472160 2.736725 -87.561639 -3.535922 -0.013584 0.657763 1.515902 -2.047561 -2.717587 0.553203 0.064010 -2.715086 0.575670 0.079823 3.962960 -0.169437 0.201212 7.634369 -2.769767 7.948515 0.000000 0.000000 -0.000000 1.280967 -13.511734 -1.874348 20.456944 -1.026644 -70.978807 0.000036 -137.477788 0.000034 -17.631630 18.840628 -43.386939 -0.024120 4.029261 2.883326 0.548407 2.476749 -24.966558 0.198058 -1.511911 14.925355 -0.000001 0.000000 0.000001 -7.213035 -16.949256 15.043177 7.558168 31.509544 -3.040779 -10.327320 16.515338 14.878083 0.000000 0.000002 0.000003 0.516538 6.974755 0.064837 15.862906 6.853023 66.901846 0.000028 133.100142 -0.000023 -16.475565 -12.608646 49.971696 -19.372334 9.812724 -17.628151 16.805757 -33.149114 6.482052 3.930030 -4.675017 -18.270503 -0.000003 -0.000003 0.000001 -0.578708 -1.290234 19.415301 0.000001 0.000000 0.000007 0.000370 -0.059106 0.725570 0.000001 0.000000 -0.000000 -23.198256 15.568877 -9.007270 25.234848 -6.016002 -9.390019 -0.171894 7.978459 8.415714 -0.283593 0.000007 -0.000005 0.000000 -0.000000 -0.000001 -2.864416 -10.159053 0.352756 -6.015985 -6.446361 5.161449 16.619059 -3.407281 27.617653 -1.639699 0.000002 0.000001 -0.000000 0.000000 0.000004 
-1.023208 12.470581 2.738235 -87.558422 -3.528261 -0.014096 0.651450 1.506674 -2.039740 -2.720172 0.550026 0.062064 -2.717676 0.572465 0.077798 3.965387 -0.170812 0.204273 7.633299 -2.783051 7.971667 0.000001 -0.000000 0.000000 1.281611 -13.501189 -1.858624 20.465197 -1.034930 -70.987925 -0.000015 -137.465972 -0.000015 -17.636278 18.838333 -43.399958 -0.024117 4.029261 2.883326 0.545205 2.469873 -24.892440 0.198061 -1.511911 14.925352 -0.000000 0.000000 -0.000001 -7.205098 -16.957070 15.086757 7.558172 31.509544 -3.040781 -10.327319 16.515339 14.878082 -0.000001 0.000002 0.000003 0.517623 6.987830 0.064817 15.855775 6.841828 66.925964 -0.000034 133.102560 0.000032 -16.457286 -12.624475 50.000458 -19.372331 9.812722 -17.628155 16.805756 -33.149114 6.482057 3.930030 -4.675017 -18.270502 -0.000002 0.000001 -0.000001 -0.578707 -1.290234 19.415301 0.000001 -0.000000 0.000007 0.000371 -0.059105 0.725571 -0.000000 -0.000000 0.000001 -23.205998 15.571040 -9.006927 25.240339 -6.016571 -9.389383 -0.167010 7.981265 8.418924 -0.272555 0.000004 0.000002 -0.000000 0.000000 0.000001 -2.871535 -10.163747 0.353916 -6.011479 -6.437561 5.162282 16.617616 -3.414498 27.609983 -1.632192 -0.000008 -0.000009 0.000001 0.000002 0.000002 
